<svg width="30" height="19" viewBox="0 0 30 19" fill="none" xmlns="http://www.w3.org/2000/svg">
<path d="M12.4103 0L7.03205 17.9902H0L5.37824 0H12.4103Z" fill="black"/>
<path d="M24.8339 0L19.4556 17.9902H12.4102L17.8018 0H24.8339Z" fill="black"/>
<path d="M12.5313 0H12.3027V17.9902H12.5313V0Z" fill="black"/>
<path d="M28.8272 13.2036C28.4238 12.9481 27.9801 12.8136 27.5364 12.7867C27.523 12.7867 27.4961 12.7867 27.4826 12.7867C27.2003 12.7867 25.9633 12.6926 25.2372 11.7111C25.2372 11.7111 25.1969 11.6708 25.1296 11.5632C25.0355 11.4018 24.9952 11.2002 24.9952 11.0119V0H24.9011H24.7666V13.2708V14.5481V14.696C24.8069 15.57 24.9145 16.3498 25.2103 16.7666C25.2103 16.7666 25.2103 16.7801 25.2238 16.7801C25.4389 17.1162 25.7212 17.412 26.0843 17.6271C27.3078 18.3667 28.9078 17.9767 29.6474 16.7532C30.3465 15.5969 29.97 13.9431 28.8272 13.2036Z" fill="black"/>
</svg>
