<svg width="40" height="40" viewBox="0 0 40 40" fill="none" xmlns="http://www.w3.org/2000/svg">
<path d="M20 13C19.1347 13 18.2888 13.2566 17.5694 13.7373C16.8499 14.2181 16.2892 14.9013 15.958 15.7008C15.6269 16.5002 15.5403 17.3799 15.7091 18.2285C15.8779 19.0772 16.2946 19.8567 16.9064 20.4686C17.5183 21.0804 18.2978 21.4971 19.1465 21.6659C19.9951 21.8347 20.8748 21.7481 21.6742 21.417C22.4737 21.0858 23.157 20.5251 23.6377 19.8056C24.1184 19.0862 24.375 18.2403 24.375 17.375C24.375 16.2147 23.9141 15.1019 23.0936 14.2814C22.2731 13.4609 21.1603 13 20 13ZM20 20C19.4808 20 18.9733 19.846 18.5416 19.5576C18.11 19.2692 17.7735 18.8592 17.5748 18.3795C17.3761 17.8999 17.3242 17.3721 17.4254 16.8629C17.5267 16.3537 17.7767 15.886 18.1438 15.5188C18.511 15.1517 18.9787 14.9017 19.4879 14.8004C19.9971 14.6992 20.5249 14.7511 21.0045 14.9498C21.4842 15.1485 21.8942 15.4849 22.1826 15.9166C22.471 16.3483 22.625 16.8558 22.625 17.375C22.6243 18.071 22.3475 18.7383 21.8554 19.2304C21.3633 19.7225 20.696 19.9993 20 20Z" fill="black"/>
<path d="M20 7.75C17.5772 7.75 15.2088 8.46845 13.1943 9.8145C11.1798 11.1605 9.60965 13.0737 8.68248 15.3121C7.75531 17.5505 7.51272 20.0136 7.98539 22.3899C8.45805 24.7661 9.62475 26.9489 11.3379 28.6621C13.0511 30.3752 15.2339 31.5419 17.6101 32.0146C19.9864 32.4873 22.4495 32.2447 24.6879 31.3175C26.9263 30.3903 28.8395 28.8202 30.1855 26.8057C31.5316 24.7912 32.25 22.4228 32.25 20C32.2463 16.7522 30.9545 13.6386 28.658 11.342C26.3615 9.04552 23.2478 7.75371 20 7.75ZM14.75 29.0799V27.875C14.7507 27.179 15.0275 26.5117 15.5196 26.0196C16.0118 25.5275 16.679 25.2507 17.375 25.25H22.625C23.321 25.2507 23.9883 25.5275 24.4804 26.0196C24.9725 26.5117 25.2493 27.179 25.25 27.875V29.0799C23.6568 30.0102 21.845 30.5004 20 30.5004C18.1551 30.5004 16.3432 30.0102 14.75 29.0799ZM26.993 27.8102C26.9756 26.6625 26.508 25.5676 25.6909 24.7614C24.8739 23.9552 23.7728 23.5022 22.625 23.5H17.375C16.2272 23.5022 15.1261 23.9552 14.3091 24.7614C13.4921 25.5676 13.0244 26.6625 13.007 27.8102C11.4202 26.3934 10.3013 24.528 9.79824 22.4611C9.2952 20.3941 9.43184 18.2232 10.1901 16.2356C10.9483 14.2481 12.2923 12.5377 14.0442 11.331C15.7961 10.1243 17.8732 9.47815 20.0004 9.47815C22.1277 9.47815 24.2048 10.1243 25.9567 11.331C27.7086 12.5377 29.0526 14.2481 29.8108 16.2356C30.569 18.2232 30.7057 20.3941 30.2026 22.4611C29.6996 24.528 28.5798 26.3934 26.993 27.8102Z" fill="black"/>
</svg>
