<svg width="13" height="12" viewBox="0 0 13 12" fill="none" xmlns="http://www.w3.org/2000/svg">
<path d="M5.84664 1.90918C6.13352 1.4002 6.86648 1.4002 7.15336 1.90918L7.99783 3.40741C8.10485 3.59729 8.28919 3.73122 8.50285 3.77433L10.1887 4.11448C10.7614 4.23004 10.9879 4.92712 10.5925 5.35725L9.42856 6.62336C9.28104 6.78382 9.21063 7.00053 9.23565 7.21705L9.4331 8.9255C9.50018 9.50591 8.90721 9.93673 8.37594 9.69358L6.81212 8.97785C6.61393 8.88714 6.38607 8.88714 6.18788 8.97785L4.62406 9.69358C4.09279 9.93673 3.49982 9.50591 3.5669 8.9255L3.76435 7.21705C3.78937 7.00053 3.71896 6.78383 3.57144 6.62336L2.4075 5.35725C2.01208 4.92712 2.23858 4.23004 2.8113 4.11448L4.49715 3.77433C4.71081 3.73122 4.89515 3.59729 5.00217 3.40741L5.84664 1.90918Z" fill="#A10000"/>
</svg>
