<svg width="16" height="17" viewBox="0 0 16 17" fill="none" xmlns="http://www.w3.org/2000/svg">
<path d="M7.34664 2.65918C7.63352 2.1502 8.36648 2.1502 8.65336 2.65918L10.0533 5.14288C10.1603 5.33277 10.3446 5.4667 10.5583 5.50981L13.353 6.0737C13.9258 6.18926 14.1523 6.88634 13.7569 7.31647L11.8273 9.41538C11.6798 9.57585 11.6094 9.79255 11.6344 10.0091L11.9617 12.8413C12.0288 13.4217 11.4358 13.8525 10.9046 13.6094L8.31212 12.4229C8.11393 12.3321 7.88607 12.3321 7.68788 12.4229L5.09543 13.6094C4.56417 13.8525 3.97119 13.4217 4.03827 12.8413L4.3656 10.0091C4.39062 9.79255 4.32021 9.57585 4.1727 9.41538L2.24315 7.31647C1.84773 6.88634 2.07423 6.18926 2.64695 6.0737L5.44169 5.50981C5.65535 5.4667 5.83969 5.33277 5.94672 5.14289L7.34664 2.65918Z" fill="#A10000"/>
</svg>
