<svg width="16" height="16" viewBox="0 0 16 16" fill="none" xmlns="http://www.w3.org/2000/svg">
<circle cx="8" cy="8" r="7.5" fill="white" stroke="#A10000"/>
<path d="M6.39356 5.06635V10.9174H5.36545V6.0911H5.33332L4 6.9671V6.00846L5.41364 5.06635H6.39356Z" fill="#1B1B1B"/>
<path d="M9.78315 5.00023C10.8916 5.00023 11.992 5.68616 12 7.81004C12 9.83476 11.1084 11 9.71889 11C8.6185 11 7.86349 10.2975 7.74301 9.33064H8.75505C8.85946 9.79344 9.20484 10.0909 9.71889 10.0909C10.5382 10.0909 11.004 9.33891 11.004 8.09102H10.9398C10.6586 8.59513 10.1125 8.89264 9.494 8.90091C8.47392 8.89264 7.68678 8.09929 7.69481 7.00015C7.68678 5.85144 8.52212 4.9837 9.78315 5.00023ZM8.67472 6.9671C8.68276 7.59517 9.13255 8.09102 9.76709 8.09102C10.4016 8.09102 10.8916 7.57038 10.8916 6.9671C10.8835 6.36382 10.4257 5.84317 9.78315 5.84317C9.14862 5.84317 8.67472 6.34729 8.67472 6.9671Z" fill="#1B1B1B"/>
</svg>
