<svg width="12" height="13" viewBox="0 0 12 13" fill="none" xmlns="http://www.w3.org/2000/svg">
<g clip-path="url(#clip0_8617_85222)">
<path d="M6 0.5C2.68661 0.5 0 3.18661 0 6.5C0 9.81339 2.68661 12.5 6 12.5C9.31339 12.5 12 9.81339 12 6.5C12 3.18661 9.31339 0.5 6 0.5ZM6 11.4821C3.24911 11.4821 1.01786 9.25089 1.01786 6.5C1.01786 3.74911 3.24911 1.51786 6 1.51786C8.75089 1.51786 10.9821 3.74911 10.9821 6.5C10.9821 9.25089 8.75089 11.4821 6 11.4821Z" fill="#AAAAAA"/>
<path d="M7.49443 3.88396C7.09265 3.53172 6.56229 3.33887 5.99979 3.33887C5.43729 3.33887 4.90693 3.53306 4.50515 3.88396C4.08729 4.24958 3.85693 4.7411 3.85693 5.26744V5.36922C3.85693 5.42815 3.90515 5.47637 3.96408 5.47637H4.60693C4.66586 5.47637 4.71408 5.42815 4.71408 5.36922V5.26744C4.71408 4.67681 5.29131 4.19601 5.99979 4.19601C6.70827 4.19601 7.28551 4.67681 7.28551 5.26744C7.28551 5.68396 6.99086 6.06565 6.53417 6.2411C6.25024 6.34958 6.00917 6.53976 5.8364 6.78887C5.66095 7.04333 5.56988 7.34869 5.56988 7.65806V7.94601C5.56988 8.00494 5.61809 8.05315 5.67702 8.05315H6.31988C6.37881 8.05315 6.42702 8.00494 6.42702 7.94601V7.64199C6.42772 7.51198 6.46757 7.38519 6.54139 7.27816C6.61521 7.17113 6.71957 7.08883 6.84086 7.04199C7.63104 6.73797 8.14131 6.04155 8.14131 5.26744C8.14265 4.7411 7.91229 4.24958 7.49443 3.88396ZM5.46408 9.44601C5.46408 9.58809 5.52052 9.72435 5.62098 9.82482C5.72145 9.92528 5.85771 9.98173 5.99979 9.98173C6.14187 9.98173 6.27813 9.92528 6.3786 9.82482C6.47906 9.72435 6.53551 9.58809 6.53551 9.44601C6.53551 9.30393 6.47906 9.16767 6.3786 9.0672C6.27813 8.96674 6.14187 8.9103 5.99979 8.9103C5.85771 8.9103 5.72145 8.96674 5.62098 9.0672C5.52052 9.16767 5.46408 9.30393 5.46408 9.44601Z" fill="#AAAAAA"/>
</g>
<defs>
<clipPath id="clip0_8617_85222">
<rect width="12" height="12" fill="white" transform="translate(0 0.5)"/>
</clipPath>
</defs>
</svg>
