<svg width="16" height="16" viewBox="0 0 16 16" fill="none" xmlns="http://www.w3.org/2000/svg">
<path d="M9.42815 2.00194L9.42815 14.4287C9.42815 14.5073 9.49244 14.5716 9.57101 14.5716L10.6424 14.5716C10.721 14.5716 10.7853 14.5073 10.7853 14.4287L10.7853 3.62158L14.0532 6.19836C14.146 6.27158 14.2853 6.20551 14.2853 6.08587L14.2853 4.79122C14.2853 4.70372 14.246 4.62158 14.1764 4.56622L10.3532 1.55194C9.97815 1.25729 9.42815 1.52336 9.42815 2.00194ZM5.21387 1.57158L5.21387 12.3787L1.94601 9.80194C1.85315 9.72872 1.71387 9.7948 1.71387 9.91444L1.71387 11.2091C1.71387 11.2966 1.75315 11.3787 1.8228 11.4341L5.64601 14.4484C6.02101 14.743 6.57101 14.4769 6.57101 14.0002L6.57101 1.57158C6.57101 1.49301 6.50672 1.42872 6.42815 1.42872L5.35672 1.42872C5.27815 1.42872 5.21387 1.49301 5.21387 1.57158Z" fill="#4F4F4F"/>
</svg>
