<svg width="92" height="32" viewBox="0 0 92 32" fill="none" xmlns="http://www.w3.org/2000/svg">
<path d="M21.1336 10.1158H19.6741V25.2946H21.1336V25.8784H13.8361V25.2946H15.2956V11.1958L9.51594 26.1703H8.84457L2.36439 10.7872V25.2946H4.69959V25.8784H0.02919V25.2946H1.78059V10.1158H0V9.53199H6.50937L11.063 20.4782L15.2956 9.53199H21.1336V10.1158Z" fill="#A10000"/>
<path d="M28.4363 25.2946H29.8958V25.8784H22.5983V25.2946H24.0578V13.0348H22.8902V12.451H28.4363V25.2946ZM28.699 8.59791C28.699 9.29847 28.446 9.90173 27.9401 10.4077C27.4536 10.8942 26.8503 11.1374 26.1303 11.1374C25.4297 11.1374 24.8265 10.8942 24.3205 10.4077C23.8146 9.90173 23.5616 9.29847 23.5616 8.59791C23.5616 7.87789 23.8146 7.2649 24.3205 6.75894C24.8265 6.25298 25.4297 6 26.1303 6C26.8503 6 27.4536 6.25298 27.9401 6.75894C28.446 7.2649 28.699 7.87789 28.699 8.59791Z" fill="#A10000"/>
<path d="M46.6892 25.2946H48.1487V25.8784H40.8512V25.2946H42.3107V17.1214C42.3107 15.7397 42.1064 14.757 41.6977 14.1732C41.289 13.5894 40.6761 13.2975 39.8587 13.2975C38.7495 13.2975 37.8641 13.8813 37.2024 15.0489V25.2946H38.6619V25.8784H31.3644V25.2946H32.8239V13.0348H31.3644V12.451H37.2024V13.9689C37.5722 13.4629 38.1463 13.0348 38.9247 12.6845C39.7225 12.3148 40.5788 12.1299 41.4934 12.1299C44.9573 12.1299 46.6892 14.0078 46.6892 17.7636V25.2946Z" fill="#A10000"/>
<path d="M61.5965 19.7404H52.7811C52.9757 23.1654 54.3087 24.8778 56.7802 24.8778C57.4418 24.8778 58.191 24.7222 59.0278 24.4108C59.884 24.0994 60.5067 23.6616 60.8959 23.0972L61.3046 23.3891C60.8765 24.1092 60.1467 24.7027 59.1153 25.1697C58.084 25.6368 57.0526 25.8703 56.0212 25.8703C55.0093 25.8703 54.0947 25.773 53.2773 25.5784C52.46 25.3643 51.6622 25.0141 50.8838 24.5276C50.1054 24.0411 49.4924 23.3113 49.0448 22.3383C48.6167 21.3653 48.4026 20.188 48.4026 18.8063C48.4026 16.4517 49.0545 14.71 50.3583 13.5813C51.6622 12.4332 53.2384 11.8591 55.0871 11.8591C56.9553 11.8591 58.5024 12.4818 59.7283 13.7273C60.9738 14.9727 61.5965 16.9771 61.5965 19.7404ZM52.7519 19.1566H57.5099C57.5099 17.3663 57.3153 15.7997 56.9261 14.457C56.5564 13.1143 55.9531 12.4429 55.1163 12.4429C54.2795 12.4429 53.6763 13.0948 53.3065 14.3986C52.9368 15.683 52.7519 17.1619 52.7519 18.8355V19.1566Z" fill="#A10000"/>
<path d="M69.5308 25.5784H62.2333V24.9946H63.6928V12.7348H62.2333V12.151H68.0713V15.6246C68.2465 14.6711 68.5578 13.8927 69.0054 13.2894C69.4724 12.6861 69.9784 12.2872 70.5233 12.0926C71.0876 11.898 71.6228 11.8007 72.1287 11.8007C72.6541 11.8007 73.1504 11.898 73.6174 12.0926C74.1039 12.2678 74.4639 12.6375 74.6974 13.2018C74.931 13.7467 74.9407 14.3013 74.7266 14.8657C74.5126 15.4105 74.1331 15.7997 73.5882 16.0333C73.0628 16.2668 72.5763 16.296 72.1287 16.1208C71.6811 15.9457 71.3601 15.7122 71.1655 15.4203C70.9709 15.1089 70.8346 14.817 70.7568 14.5446C70.5622 13.8246 70.2995 13.4645 69.9687 13.4645C69.5989 13.4645 69.1903 14.1067 68.7427 15.3911C68.2951 16.656 68.0713 17.9987 68.0713 19.4193V24.9946H69.5308V25.5784Z" fill="#A10000"/>
<path d="M83.0215 28.8185C82.4961 29.9472 81.9415 30.7548 81.3577 31.2413C80.7739 31.7472 79.9955 32.0002 79.0225 32.0002C78.0495 32.0002 77.2905 31.7861 76.7456 31.358C76.2008 30.9494 75.9283 30.3948 75.9283 29.6942C75.9283 29.0131 76.1229 28.4682 76.5121 28.0595C76.9208 27.6509 77.4073 27.4466 77.9716 27.4466C78.536 27.4466 79.0127 27.5536 79.4019 27.7677C79.7911 27.9817 80.0636 28.2152 80.2193 28.4682C80.6474 29.1493 81.0463 29.4899 81.416 29.4899C81.8052 29.4899 82.1458 29.159 82.4377 28.4974L83.6637 25.6076L76.8332 12.7348H75.6656V12.151H83.5177V12.7348H82.0582L85.9697 20.441L89.3265 12.7348H86.9913V12.151H91.4785V12.7348H89.7271L83.0215 28.8185Z" fill="#A10000"/>
</svg>
