<svg width="40" height="40" viewBox="0 0 40 40" fill="none" xmlns="http://www.w3.org/2000/svg">
<path d="M14.75 32.2502C15.7165 32.2502 16.5 31.4667 16.5 30.5002C16.5 29.5337 15.7165 28.7502 14.75 28.7502C13.7835 28.7502 13 29.5337 13 30.5002C13 31.4667 13.7835 32.2502 14.75 32.2502Z" fill="black"/>
<path d="M27 32.2502C27.9665 32.2502 28.75 31.4667 28.75 30.5002C28.75 29.5337 27.9665 28.7502 27 28.7502C26.0335 28.7502 25.25 29.5337 25.25 30.5002C25.25 31.4667 26.0335 32.2502 27 32.2502Z" fill="black"/>
<path d="M30.5 12.1254H11.0925L10.375 8.45042C10.3341 8.24981 10.2241 8.06989 10.0643 7.94198C9.90437 7.81408 9.7047 7.74629 9.5 7.75042H6V9.50042H8.7825L12.125 26.3004C12.1659 26.501 12.2759 26.681 12.4357 26.8089C12.5956 26.9368 12.7953 27.0046 13 27.0004H28.75V25.2504H13.7175L13 21.7504H28.75C28.9523 21.7554 29.15 21.6901 29.3095 21.5656C29.4691 21.4412 29.5805 21.2653 29.625 21.0679L31.375 13.1929C31.4043 13.0631 31.4036 12.9283 31.373 12.7988C31.3424 12.6692 31.2826 12.5484 31.1982 12.4455C31.1138 12.3425 31.0071 12.2602 30.8861 12.2047C30.7651 12.1493 30.6331 12.1222 30.5 12.1254ZM28.05 20.0004H12.6675L11.4425 13.8754H29.4062L28.05 20.0004Z" fill="black"/>
</svg>
