<svg width="12" height="12" viewBox="0 0 12 12" fill="none" xmlns="http://www.w3.org/2000/svg">
<g clip-path="url(#clip0_9696_35481)">
<path d="M6 0C2.68661 0 0 2.68661 0 6C0 9.31339 2.68661 12 6 12C9.31339 12 12 9.31339 12 6C12 2.68661 9.31339 0 6 0ZM6 10.9821C3.24911 10.9821 1.01786 8.75089 1.01786 6C1.01786 3.24911 3.24911 1.01786 6 1.01786C8.75089 1.01786 10.9821 3.24911 10.9821 6C10.9821 8.75089 8.75089 10.9821 6 10.9821Z" fill="#4F4F4F"/>
<path d="M5.35693 8.35714C5.35693 8.52764 5.42466 8.69115 5.54522 8.81171C5.66578 8.93227 5.8293 9 5.99979 9C6.17029 9 6.3338 8.93227 6.45436 8.81171C6.57492 8.69115 6.64265 8.52764 6.64265 8.35714C6.64265 8.18665 6.57492 8.02313 6.45436 7.90258C6.3338 7.78202 6.17029 7.71429 5.99979 7.71429C5.8293 7.71429 5.66578 7.78202 5.54522 7.90258C5.42466 8.02313 5.35693 8.18665 5.35693 8.35714ZM5.67836 6.85714H6.32122C6.38015 6.85714 6.42836 6.80893 6.42836 6.75V3.10714C6.42836 3.04821 6.38015 3 6.32122 3H5.67836C5.61943 3 5.57122 3.04821 5.57122 3.10714V6.75C5.57122 6.80893 5.61943 6.85714 5.67836 6.85714Z" fill="#4F4F4F"/>
</g>
<defs>
<clipPath id="clip0_9696_35481">
<rect width="12" height="12" fill="white"/>
</clipPath>
</defs>
</svg>
