<svg width="48" height="48" viewBox="0 0 48 48" fill="none" xmlns="http://www.w3.org/2000/svg">
<ellipse cx="11.7538" cy="5.625" rx="5.62514" ry="5.625" transform="rotate(-180 11.7538 5.625)" fill="#DF4242"/>
<g filter="url(#filter0_b_9082_79896)">
<path d="M26.2895 33.75C17.6122 33.75 10.5391 26.416 10.5391 17.4186V5.25H42.0398V17.4186C42.0398 26.416 35.0397 33.75 26.2895 33.75Z" fill="url(#paint0_linear_9082_79896)"/>
</g>
<path fill-rule="evenodd" clip-rule="evenodd" d="M14.3789 17.7752C14.3789 23.9791 18.9299 29.1527 24.8789 29.9058V45H15.1289V48H37.6295V45H27.879V29.9058C33.8283 29.1526 38.3795 23.9735 38.3795 17.6997V12H14.3789V17.7752Z" fill="url(#paint1_linear_9082_79896)"/>
<defs>
<filter id="filter0_b_9082_79896" x="6.03901" y="0.749944" width="40.5001" height="37.5001" filterUnits="userSpaceOnUse" color-interpolation-filters="sRGB">
<feFlood flood-opacity="0" result="BackgroundImageFix"/>
<feGaussianBlur in="BackgroundImageFix" stdDeviation="2.25003"/>
<feComposite in2="SourceAlpha" operator="in" result="effect1_backgroundBlur_9082_79896"/>
<feBlend mode="normal" in="SourceGraphic" in2="effect1_backgroundBlur_9082_79896" result="shape"/>
</filter>
<linearGradient id="paint0_linear_9082_79896" x1="26.2895" y1="5.25" x2="26.2895" y2="33.75" gradientUnits="userSpaceOnUse">
<stop stop-color="white" stop-opacity="0.24"/>
<stop offset="1" stop-color="white" stop-opacity="0.63"/>
</linearGradient>
<linearGradient id="paint1_linear_9082_79896" x1="26.3792" y1="12" x2="26.3792" y2="48" gradientUnits="userSpaceOnUse">
<stop stop-color="#F13E3E"/>
<stop offset="0.322917" stop-color="#AE0000"/>
<stop offset="1" stop-color="#450303"/>
</linearGradient>
</defs>
</svg>
